HIERARCHY
ROOT Hips
{
	OFFSET 0.00000 0.00000 0.00000
	CHANNELS 6 Xposition Yposition Zposition Zrotation Yrotation Xrotation 
	JOINT LHipJoint
	{
		OFFSET 0 0 0
		CHANNELS 3 Zrotation Yrotation Xrotation
		JOINT LeftHip
		{
			OFFSET 1.61024 -1.73873 0.75100
			CHANNELS 3 Zrotation Yrotation Xrotation
			JOINT LeftKnee
			{
				OFFSET 2.29819 -6.31424 0.00000
				CHANNELS 3 Zrotation Yrotation Xrotation
				JOINT LeftAnkle
				{
					OFFSET 2.76618 -7.60002 0.00000
					CHANNELS 3 Zrotation Yrotation Xrotation
					JOINT LeftToe
					{
						OFFSET 0.16838 -0.46263 2.02361
						CHANNELS 3 Zrotation Yrotation Xrotation
						End Site
						{
							OFFSET 0.00000 -0.00000 1.04662
						}
					}
				}
			}
		}
	}
	JOINT RHipJoint
	{
		OFFSET 0 0 0
		CHANNELS 3 Zrotation Yrotation Xrotation
		JOINT RightHip
		{
			OFFSET -1.46153 -1.73873 0.75100
			CHANNELS 3 Zrotation Yrotation Xrotation
			JOINT RightKnee
			{
				OFFSET -2.38373 -6.54924 0.00000
				CHANNELS 3 Zrotation Yrotation Xrotation
				JOINT RightAnkle
				{
					OFFSET -2.80314 -7.70157 0.00000
					CHANNELS 3 Zrotation Yrotation Xrotation
					JOINT RightToe
					{
						OFFSET -0.16142 -0.44349 2.02101
						CHANNELS 3 Zrotation Yrotation Xrotation
						End Site
						{
							OFFSET -0.00000 -0.00000 1.04381
						}
					}
				}
			}
		}
	}
	JOINT lowerback
	{
		OFFSET 0 0 0
		CHANNELS 3 Zrotation Yrotation Xrotation
		JOINT Chest
		{
			OFFSET -0.01629 1.66985 0.14750
			CHANNELS 3 Zrotation Yrotation Xrotation
			JOINT Chest2
			{
				OFFSET 0.02086 1.62378 0.20980
				CHANNELS 3 Zrotation Yrotation Xrotation
				JOINT lowerneck
				{
					OFFSET 0 0 0
					CHANNELS 3 Zrotation Yrotation Xrotation
					JOINT Neck
					{
						OFFSET -0.05690 1.78719 0.08702
						CHANNELS 3 Zrotation Yrotation Xrotation
						JOINT Head
						{
							OFFSET 0.16035 1.73871 -0.38470
							CHANNELS 3 Zrotation Yrotation Xrotation
							End Site
							{
								OFFSET 0.05645 1.80914 -0.14081
							}
						}
					}
				}
				JOINT LeftCollar
				{
					OFFSET 0 0 0
					CHANNELS 3 Zrotation Yrotation Xrotation
					JOINT LeftShoulder
					{
						OFFSET 2.83089 1.66494 -0.46008
CHANNELS 3 Zrotation Xrotation Yrotation
						JOINT LeftElbow
						{
OFFSET 0 -5.548930 -0.000000
CHANNELS 3 Zrotation Xrotation Yrotation
							JOINT LeftWrist
							{
OFFSET 0 -3.028980 -0.000000
CHANNELS 3 Zrotation Xrotation Yrotation
								JOINT lhand
								{
									OFFSET 0 0 0
CHANNELS 3 Zrotation Xrotation Yrotation
									JOINT LFingers
									{
OFFSET 0 -0.640950 -0.000000
CHANNELS 3 Zrotation Xrotation Yrotation
										End Site
										{
OFFSET 0 -0.516750 -0.000000
										}
									}
								}
								JOINT LThumb
								{
OFFSET 0 0.000000 0.000000
CHANNELS 3 Zrotation Xrotation Yrotation
									End Site
									{
OFFSET 0 -0.524640 0.524640
									}
								}
							}
						}
					}
				}
				JOINT RightCollar
				{
					OFFSET 0 0 0
					CHANNELS 3 Zrotation Yrotation Xrotation
					JOINT RightShoulder
					{
						OFFSET -2.84442 1.45761 -0.18088
CHANNELS 3 Zrotation Xrotation Yrotation
						JOINT RightElbow
						{
OFFSET 0 -5.351900 -0.000000
CHANNELS 3 Zrotation Xrotation Yrotation
							JOINT RightWrist
							{
OFFSET 0 -3.025310 -0.000000
CHANNELS 3 Zrotation Xrotation Yrotation
								JOINT rhand
								{
									OFFSET 0 0 0
CHANNELS 3 Zrotation Xrotation Yrotation
									JOINT RFingers
									{
OFFSET 0 -0.783890 -0.000000
CHANNELS 3 Zrotation Xrotation Yrotation
										End Site
										{
OFFSET 0 -0.631990 -0.000000
										}
									}
								}
								JOINT RThumb
								{
OFFSET 0 0.000000 0.000000
CHANNELS 3 Zrotation Xrotation Yrotation
									End Site
									{
OFFSET 0 -0.641640 0.641640
									}
								}
							}
						}
					}
				}
			}
		}
	}
}
MOTION
Frames: 6
Frame Time: .0083333
-0.0424 17.7769 1.2845 -355.1510 125.2210 -341.3800 0.0000 0.0000 0.0000 -3.3155 -30.3483 -15.9912 0.4647 4.3727 12.1275 -0.0490 5.6286 -6.3467 2.5076 -9.8517 -28.4979 0.0000 0.0000 0.0000 25.5665 -0.0052 -8.4856 -0.1882 -2.7938 7.7051 1.2227 -25.8913 -28.4818 -0.0455 1.3762 -3.7846 1.3470 5.7372 -5.4464 -1.3153 8.0338 -7.5191 -1.9759 4.1058 -4.4022 -1.4675 1.6413 -7.3761 7.3559 1.9955 23.3397 2.9686 1.9777 8.3397 -0.0000 0.0000 0.0000 32.7293 -32.0403 -32.2024 162.4424 -27.587 115.6576 -8.7429 -18.1727 -48.1958 0.0 0.0 0.0 -7.1250 0.0 0.0 -66.8843 66.5673 41.9113 -0.0000 0.0000 0.0000 -21.7653 -59.3077 58.2589 -138.3877 -48.9967 -100.3525 8.2214 -1.3412 -2.1509 0.0 0.0 0.0 7.1250 0.0 -0.0 26.0072 27.3189 12.4029
-0.0369 17.7755 1.2627 -355.2920 125.7660 -341.4030 0.0000 0.0000 0.0000 -3.3121 -30.4715 -16.2611 0.4717 4.4047 12.2182 -0.0324 5.1677 -6.2064 2.5040 -9.8452 -28.4768 0.0000 0.0000 0.0000 25.6365 -0.5163 -8.5729 -0.1792 -2.7265 7.5182 1.1611 -25.7228 -28.6457 -0.0349 1.2055 -3.3143 1.1799 5.7461 -5.2006 -1.3921 8.0450 -7.4914 -1.9913 4.1129 -4.5200 -1.6112 1.5949 -7.3189 7.5681 1.8988 22.9619 3.0410 1.9249 8.2011 -0.0000 -0.0000 0.0000 32.6948 -32.6959 -31.9103 162.5536 -27.4425 115.709 -8.1937 -17.6669 -48.2857 0.0 0.0 0.0 -7.1250 0.0 0.0 -66.6609 66.7818 42.0005 -0.0000 -0.0000 0.0000 -23.0169 -59.32 56.6688 -138.1746 -49.115 -100.1916 8.9772 -1.4467 -2.6193 0.0 0.0 0.0 7.1250 0.0 -0.0 26.4174 26.8598 12.9714
-0.0299 17.7740 1.2385 -355.3590 126.3200 -341.3280 0.0000 0.0000 0.0000 -3.2535 -30.5972 -16.5997 0.4808 4.4465 12.3363 -0.0194 4.7381 -6.0259 2.6150 -10.0441 -29.1197 0.0000 0.0000 0.0000 25.7440 -1.0083 -8.6882 -0.1705 -2.6597 7.3326 1.0781 -25.4871 -28.8522 -0.0206 0.9261 -2.5456 1.0752 5.7609 -4.9999 -1.4459 8.0631 -7.4624 -2.0112 4.1221 -4.6064 -1.7596 1.5178 -7.1172 7.6881 1.7786 22.4291 3.0728 1.8433 7.9873 -0.0000 -0.0000 0.0000 32.6834 -33.3063 -31.5882 162.7158 -27.2309 115.7835 -7.8753 -17.4648 -48.5218 0.0 0.0 0.0 -7.1250 0.0 0.0 -66.9124 66.989 42.4825 -0.0000 -0.0000 0.0000 -24.0994 -59.4339 55.1534 -138.1676 -49.1188 -100.1863 10.6575 -2.8538 -2.3667 0.0 0.0 0.0 7.1250 0.0 -0.0 27.6186 27.0051 13.6064
-0.0244 17.7730 1.2120 -355.5660 126.8190 -341.3040 0.0000 0.0000 0.0000 -3.2816 -30.6957 -17.0385 0.4938 4.5053 12.5027 -0.0054 4.2679 -5.8753 2.7685 -10.3105 -29.9882 0.0000 0.0000 0.0000 25.7290 -1.4612 -8.8352 -0.1590 -2.5693 7.0817 1.0357 -25.3594 -28.9440 -0.0121 0.7097 -1.9504 0.8801 5.7710 -4.8614 -1.5102 8.0755 -7.4293 -1.9860 4.1337 -4.6646 -1.9355 1.4703 -6.8819 7.7579 1.7105 21.8088 3.0935 1.7739 7.7377 -0.0000 -0.0000 0.0000 32.623 -33.9325 -31.2513 162.8283 -27.0836 115.8348 -8.0751 -17.5028 -48.5019 0.0 0.0 0.0 -7.1250 0.0 0.0 -67.0178 66.9165 42.4785 -0.0000 -0.0000 0.0000 -25.2344 -59.5697 53.7221 -138.1034 -49.1543 -100.1377 11.8788 -4.2031 -2.1332 0.0 0.0 0.0 7.1250 0.0 -0.0 28.4962 27.1471 14.0506
-0.0207 17.7754 1.1846 -355.7860 127.3100 -341.3220 0.0000 0.0000 0.0000 -3.3807 -30.7281 -17.4067 0.5054 4.5574 12.6503 0.0083 3.8037 -5.7810 2.8880 -10.5114 -30.6493 0.0000 0.0000 0.0000 25.6937 -1.9117 -8.9907 -0.1508 -2.5025 6.8965 1.0267 -25.3207 -28.9430 -0.0106 0.6657 -1.8294 0.7030 5.8033 -4.6828 -1.6203 8.1113 -7.3643 -2.0186 4.1534 -4.7018 -2.1284 1.3971 -6.6732 7.9696 1.5834 21.1606 3.1601 1.6885 7.4874 -0.0000 -0.0000 0.0000 32.6717 -34.5632 -31.24 162.8346 -27.0753 115.8377 -7.7096 -16.4029 -48.2608 0.0 0.0 0.0 -7.1250 0.0 0.0 -66.2515 66.9243 41.8378 -0.0000 -0.0000 0.0000 -26.5638 -59.6536 52.0874 -137.8455 -49.2958 -99.9424 12.1593 -5.2623 -2.4585 0.0 0.0 0.0 7.1250 0.0 -0.0 28.6000 26.8386 14.3606
-0.0170 17.7778 1.1573 -355.9790 127.7810 -341.3310 0.0000 0.0000 0.0000 -3.4173 -30.9394 -17.6870 0.5160 4.6039 12.7821 0.0190 3.4632 -5.7665 2.8968 -10.5261 -30.6976 0.0000 0.0000 0.0000 25.6727 -2.3344 -9.1540 -0.1454 -2.4574 6.7716 0.9971 -25.2411 -29.0252 -0.0080 0.5762 -1.5835 0.5256 5.8258 -4.4739 -1.7242 8.1325 -7.2930 -2.0484 4.1653 -4.7509 -2.3106 1.3211 -6.4123 8.2070 1.4500 20.4532 3.2308 1.6001 7.2111 -0.0000 -0.0000 0.0000 32.7967 -35.1257 -31.3186 162.8207 -27.0936 115.8313 -6.1518 -14.3117 -48.2547 0.0 0.0 0.0 -7.1250 0.0 0.0 -65.0795 67.4195 41.4817 -0.0000 -0.0000 0.0000 -27.7626 -59.7659 50.4265 -137.5636 -49.4489 -99.7285 12.859 -7.0363 -2.6696 0.0 0.0 0.0 7.1250 0.0 -0.0 29.0082 26.6072 14.8142
